<?xml version="1.0" encoding="utf-8"?>
<!-- Generator: Adobe Illustrator 27.0.1, SVG Export Plug-In . SVG Version: 6.00 Build 0)  -->
<svg version="1.1" id="圖層_1" xmlns="http://www.w3.org/2000/svg" xmlns:xlink="http://www.w3.org/1999/xlink" x="0px" y="0px"
	 viewBox="0 0 16 16" style="enable-background:new 0 0 16 16;" xml:space="preserve">
<style type="text/css">
	.st0{fill:#FFFFFF;}
</style>
<path class="st0" d="M4.4,3.3C5.4,2.5,6.7,2,8,2c2.7,0,4.9,2,5.2,4.6C14.8,6.8,16,8.1,16,9.8c0,1.8-1.5,3.2-3.3,3.2H3.8
	C1.7,13,0,11.4,0,9.3c0-1.8,1.3-3.2,2.9-3.6C3.1,4.9,3.6,4,4.4,3.3 M5.1,4.1C4.3,4.8,3.9,5.5,3.9,6.2v0.4l-0.4,0C2.1,6.8,1,8,1,9.3
	C1,10.8,2.2,12,3.8,12h8.9C14,12,15,11,15,9.8c0-1.2-1-2.2-2.3-2.2h-0.5V7c0-2.2-1.9-4-4.2-4C6.9,3,5.9,3.4,5.1,4.1L5.1,4.1z"/>
</svg>
