<?xml version="1.0" encoding="utf-8"?>
<!-- Generator: Adobe Illustrator 27.0.1, SVG Export Plug-In . SVG Version: 6.00 Build 0)  -->
<svg version="1.1" id="圖層_1" xmlns="http://www.w3.org/2000/svg" xmlns:xlink="http://www.w3.org/1999/xlink" x="0px" y="0px"
	 viewBox="0 0 16 16" style="enable-background:new 0 0 16 16;" xml:space="preserve">
<style type="text/css">
	.st0{fill:#FFFFFF;}
</style>
<path class="st0" d="M4.2,12c0.3,0.1,0.4,0.4,0.3,0.6c0,0,0,0,0,0L4,14.2c-0.1,0.3-0.4,0.4-0.6,0.3C3.1,14.4,3,14.1,3,13.8l0.5-1.5
	C3.6,12.1,3.9,11.9,4.2,12 M10.2,12c0.3,0.1,0.4,0.4,0.3,0.6c0,0,0,0,0,0L10,14.2c-0.1,0.3-0.4,0.4-0.6,0.3C9.1,14.4,9,14.1,9,13.8
	l0.5-1.5C9.6,12.1,9.9,11.9,10.2,12 M6.7,13.5c0.3,0.1,0.4,0.4,0.3,0.6c0,0,0,0,0,0l-0.5,1.5c-0.1,0.3-0.4,0.4-0.6,0.3
	c-0.2-0.1-0.4-0.4-0.3-0.6L6,13.8C6.1,13.6,6.4,13.4,6.7,13.5 M12.7,13.5c0.3,0.1,0.4,0.4,0.3,0.6c0,0,0,0,0,0l-0.5,1.5
	c-0.1,0.3-0.4,0.4-0.6,0.3s-0.4-0.4-0.3-0.6c0,0,0,0,0,0l0.5-1.5C12.1,13.6,12.4,13.4,12.7,13.5 M13.4,5c-0.5-2.7-3.2-4.5-5.9-3.9
	C5.9,1.4,4.6,2.5,3.9,4C2,3.8,0.2,5.2,0,7.1s1.2,3.7,3.1,3.9c0.1,0,0.3,0,0.4,0H13c1.7,0,3-1.3,3-3C16,6.5,14.9,5.2,13.4,5 M8.5,2
	c2,0,3.7,1.5,4,3.6C12.5,5.8,12.7,6,13,6h0c1.1,0,2,0.9,2,2c0,1.1-0.9,2-2,2H3.5C2.1,10,1,8.9,1,7.5S2.1,5,3.5,5
	c0.2,0,0.4,0,0.6,0.1C4.4,5.1,4.6,5,4.7,4.7C5.2,3.1,6.8,2,8.5,2"/>
</svg>
